<svg id="svg" fill="#ffffff" stroke="#ffffff" width="200" height="200" version="1.1" viewBox="144 144 512 512" xmlns="http://www.w3.org/2000/svg">
    <g id="IconSvg_bgCarrier" stroke-width="0"></g>
    <g id="IconSvg_tracerCarrier" stroke-linecap="round" stroke-linejoin="round" stroke="#CCCCCC" stroke-width="0">
      <g xmlns="http://www.w3.org/2000/svg">
  <path d="m559.13 377.91v105.88c0 42.602-139.51 44.75-167.44 44.75-27.934 0-167.44-2.1484-167.44-44.75v-105.88l161.96 43.641c1.7031 0.44531 3.5547 0.66797 5.4844 0.66797 1.9258 0 3.7773-0.22266 5.7773-0.74219z"></path>
  <path d="m633.96 442.43c-1.1133-5.9258-5.1133-10.668-10.297-12.965 5.3359-2.7422 8.9648-8.2969 8.9648-14.668 0-6.4219-3.7148-11.863-9.0547-14.555v-60.703c0-0.027344 0.015625-0.054688 0.015625-0.082031 0-3.2617-2.582-6.3789-5.4844-7.1875l-224.49-60.531c-1.2578-0.37109-2.5938-0.37109-3.8516 0l-224.49 60.531c-3.1875 0.89062-5.4844 3.8516-5.4844 7.1875 0 3.3359 2.2969 6.2969 5.4844 7.1875l224.49 60.531c0.59375 0.14844 1.2578 0.22266 1.9258 0.22266s1.332-0.074219 1.9258-0.22266l215.14-58.012v51.078c-5.3438 2.6875-9.0234 8.1328-9.0234 14.555 0 6.3711 3.6289 11.93 8.9648 14.668-5.1875 2.2969-9.1875 7.0391-10.297 12.965l-1.0391 5.1875-3.4805 18.375-1.6289 8.4453c-0.66797 3.5547 2 6.8164 5.6289 6.8164h36.602c3.5547 0 6.2969-3.2617 5.6289-6.8164zm-242.27-89.934c-13.484 0-24.375-5.8516-24.375-13.039s10.891-13.039 24.375-13.039 24.375 5.8516 24.375 13.039c0 7.1836-10.891 13.039-24.375 13.039z"></path>
 </g>

      </g>
     <g id="IconSvg_iconCarrier">
      <g xmlns="http://www.w3.org/2000/svg">
  <path d="m559.13 377.91v105.88c0 42.602-139.51 44.75-167.44 44.75-27.934 0-167.44-2.1484-167.44-44.75v-105.88l161.96 43.641c1.7031 0.44531 3.5547 0.66797 5.4844 0.66797 1.9258 0 3.7773-0.22266 5.7773-0.74219z"></path>
  <path d="m633.96 442.43c-1.1133-5.9258-5.1133-10.668-10.297-12.965 5.3359-2.7422 8.9648-8.2969 8.9648-14.668 0-6.4219-3.7148-11.863-9.0547-14.555v-60.703c0-0.027344 0.015625-0.054688 0.015625-0.082031 0-3.2617-2.582-6.3789-5.4844-7.1875l-224.49-60.531c-1.2578-0.37109-2.5938-0.37109-3.8516 0l-224.49 60.531c-3.1875 0.89062-5.4844 3.8516-5.4844 7.1875 0 3.3359 2.2969 6.2969 5.4844 7.1875l224.49 60.531c0.59375 0.14844 1.2578 0.22266 1.9258 0.22266s1.332-0.074219 1.9258-0.22266l215.14-58.012v51.078c-5.3438 2.6875-9.0234 8.1328-9.0234 14.555 0 6.3711 3.6289 11.93 8.9648 14.668-5.1875 2.2969-9.1875 7.0391-10.297 12.965l-1.0391 5.1875-3.4805 18.375-1.6289 8.4453c-0.66797 3.5547 2 6.8164 5.6289 6.8164h36.602c3.5547 0 6.2969-3.2617 5.6289-6.8164zm-242.27-89.934c-13.484 0-24.375-5.8516-24.375-13.039s10.891-13.039 24.375-13.039 24.375 5.8516 24.375 13.039c0 7.1836-10.891 13.039-24.375 13.039z"></path>
 </g>

      </g>
      </svg>